<svg xmlns="http://www.w3.org/2000/svg" width="353.63385009765625" height="331.83837890625" viewBox="-301.2906494140625 -110.92859649658203 353.63385009765625 331.83837890625"><title>Neo4j Graph Visualization</title><desc>Created using Neo4j (http://www.neo4j.com/)</desc><g class="layer relationships"><g class="relationship" transform="translate(-117.87842099601856 70.79013659027015) rotate(410.51580237781246)"><path class="outline" fill="#A5ABB6" stroke="none" d="M 25 0.5 L 52.18445251639962 0.5 L 52.18445251639962 -0.5 L 25 -0.5 Z M 97.74695251639962 0.5 L 124.93140503279923 0.5 L 124.93140503279923 3.5 L 131.93140503279923 0 L 124.93140503279923 -3.5 L 124.93140503279923 -0.5 L 97.74695251639962 -0.5 Z"/><text text-anchor="middle" pointer-events="none" font-size="8px" fill="#000000" x="74.96570251639962" y="3" font-family="sans-serif">ACTED_IN</text></g><g class="relationship" transform="translate(-117.87842099601856 70.79013659027015) rotate(341.92205084196746)"><path class="outline" fill="#A5ABB6" stroke="none" d="M 25 0.5 L 47.9962630097625 0.5 L 47.9962630097625 -0.5 L 25 -0.5 Z M 93.5587630097625 0.5 L 116.555026019525 0.5 L 116.555026019525 3.5 L 123.555026019525 0 L 116.555026019525 -3.5 L 116.555026019525 -0.5 L 93.5587630097625 -0.5 Z"/><text text-anchor="middle" pointer-events="none" font-size="8px" fill="#000000" x="70.7775130097625" y="3" font-family="sans-serif">ACTED_IN</text></g><g class="relationship" transform="translate(-117.87842099601856 70.79013659027015) rotate(277.5825085512238)"><path class="outline" fill="#A5ABB6" stroke="none" d="M 25 0.5 L 50.75170219960967 0.5 L 50.75170219960967 -0.5 L 25 -0.5 Z M 96.31420219960967 0.5 L 122.06590439921933 0.5 L 122.06590439921933 3.5 L 129.06590439921933 0 L 122.06590439921933 -3.5 L 122.06590439921933 -0.5 L 96.31420219960967 -0.5 Z"/><text text-anchor="middle" pointer-events="none" font-size="8px" fill="#000000" x="73.53295219960967" y="3" font-family="sans-serif">ACTED_IN</text></g><g class="relationship" transform="translate(-117.87842099601856 70.79013659027015) rotate(223.80383193851748)"><path class="outline" fill="#A5ABB6" stroke="none" d="M 25 0.5 L 50.87949198633889 0.5 L 50.87949198633889 -0.5 L 25 -0.5 Z M 96.44199198633889 0.5 L 122.32148397267778 0.5 L 122.32148397267778 3.5 L 129.32148397267778 0 L 122.32148397267778 -3.5 L 122.32148397267778 -0.5 L 96.44199198633889 -0.5 Z"/><text text-anchor="middle" pointer-events="none" font-size="8px" fill="#000000" x="73.66074198633889" y="3" transform="rotate(180 73.66074198633889 0)" font-family="sans-serif">ACTED_IN</text></g><g class="relationship" transform="translate(-117.87842099601856 70.79013659027015) rotate(514.448814623433)"><path class="outline" fill="#A5ABB6" stroke="none" d="M 25 0.5 L 59.294105190630304 0.5 L 59.294105190630304 -0.5 L 25 -0.5 Z M 104.8566051906303 0.5 L 139.1507103812606 0.5 L 139.1507103812606 3.5 L 146.1507103812606 0 L 139.1507103812606 -3.5 L 139.1507103812606 -0.5 L 104.8566051906303 -0.5 Z"/><text text-anchor="middle" pointer-events="none" font-size="8px" fill="#000000" x="82.0753551906303" y="3" transform="rotate(180 82.0753551906303 0)" font-family="sans-serif">ACTED_IN</text></g></g><g class="layer nodes"><g class="node" aria-label="graph-node4" transform="translate(-117.87842099601856,70.79013659027015)"><circle class="outline" cx="0" cy="0" r="25" fill="#C990C0" stroke="#b261a5" stroke-width="2px"/><text class="caption" text-anchor="middle" pointer-events="none" x="0" y="0" font-size="10px" fill="#FFFFFF" font-family="sans-serif"> Hugo</text><text class="caption" text-anchor="middle" pointer-events="none" x="0" y="10" font-size="10px" fill="#FFFFFF" font-family="sans-serif"> Weavi…</text></g><g class="node" aria-label="graph-node105" transform="translate(-18.091173609206507,191.9097928997712)"><circle class="outline" cx="0" cy="0" r="25" fill="#F79767" stroke="#f36924" stroke-width="2px"/><text class="caption" text-anchor="middle" pointer-events="none" x="0" y="0" font-size="10px" fill="#FFFFFF" font-family="sans-serif"> Cloud</text><text class="caption" text-anchor="middle" pointer-events="none" x="0" y="10" font-size="10px" fill="#FFFFFF" font-family="sans-serif"> Atlas</text></g><g class="node" aria-label="graph-node116" transform="translate(23.34322004917265,24.691938619363288)"><circle class="outline" cx="0" cy="0" r="25" fill="#F79767" stroke="#f36924" stroke-width="2px"/><text class="caption" text-anchor="middle" pointer-events="none" x="0" y="0" font-size="10px" fill="#FFFFFF" font-family="sans-serif"> V for</text><text class="caption" text-anchor="middle" pointer-events="none" x="0" y="10" font-size="10px" fill="#FFFFFF" font-family="sans-serif"> Vende…</text></g><g class="node" aria-label="graph-node10" transform="translate(-97.54884215992249,-81.9285954719636)"><circle class="outline" cx="0" cy="0" r="25" fill="#F79767" stroke="#f36924" stroke-width="2px"/><text class="caption" text-anchor="middle" pointer-events="none" x="0" y="-5" font-size="10px" fill="#FFFFFF" font-family="sans-serif"> The</text><text class="caption" text-anchor="middle" pointer-events="none" x="0" y="5" font-size="10px" fill="#FFFFFF" font-family="sans-serif"> Matrix</text><text class="caption" text-anchor="middle" pointer-events="none" x="0" y="15" font-size="10px" fill="#FFFFFF" font-family="sans-serif"> Rev…</text></g><g class="node" aria-label="graph-node9" transform="translate(-229.254386601386,-36.029874180191115)"><circle class="outline" cx="0" cy="0" r="25" fill="#F79767" stroke="#f36924" stroke-width="2px"/><text class="caption" text-anchor="middle" pointer-events="none" x="0" y="-5" font-size="10px" fill="#FFFFFF" font-family="sans-serif"> The</text><text class="caption" text-anchor="middle" pointer-events="none" x="0" y="5" font-size="10px" fill="#FFFFFF" font-family="sans-serif"> Matrix</text><text class="caption" text-anchor="middle" pointer-events="none" x="0" y="15" font-size="10px" fill="#FFFFFF" font-family="sans-serif"> Rel…</text></g><g class="node" aria-label="graph-node0" transform="translate(-272.29064764625474,144.61039075487082)"><circle class="outline" cx="0" cy="0" r="25" fill="#F79767" stroke="#f36924" stroke-width="2px"/><text class="caption" text-anchor="middle" pointer-events="none" x="0" y="0" font-size="10px" fill="#FFFFFF" font-family="sans-serif"> The</text><text class="caption" text-anchor="middle" pointer-events="none" x="0" y="10" font-size="10px" fill="#FFFFFF" font-family="sans-serif"> Matrix</text></g></g></svg>