<svg xmlns="http://www.w3.org/2000/svg" width="693.7770385742188" height="336.3974609375" viewBox="-520.236328125 -184.94776916503906 693.7770385742188 336.3974609375"><title>Neo4j Graph Visualization</title><desc>Created using Neo4j (http://www.neo4j.com/)</desc><g class="layer relationships"><g class="relationship" transform="translate(144.54070384931123 -155.94776619443633) rotate(450.9644162606901)"><path class="outline" fill="#A5ABB6" stroke="none" d="M 24.018736134675446,-6.953439040707552 L 24.277555179777966,-5.987513214418485 A 215.1000863350606 215.1000863350606 0 0 1 66.67342037014231,-12.906773672578538 L 66.61169964290994,-13.904867131043176 A 216.1000863350606 216.1000863350606 0 0 0 24.018736134675446,-6.953439040707552 Z M 88.6636197944155,-14.141105526735373 L 88.62329558253889,-13.141918878537695 A 215.1000863350606 215.1000863350606 0 0 1 131.15766345849556,-7.132501276124728 L 130.4434641728815,-4.218754653573554 L 138.07543879205062,-5.951660713450458 L 132.1099291726476,-11.017496772859626 L 131.39572988703355,-8.103750150308452 A 216.1000863350606 216.1000863350606 0 0 0 88.6636197944155,-14.141105526735373"/><text text-anchor="middle" pointer-events="none" font-size="8px" fill="#000000" x="77.64000032104022" y="-10.804500351687977" transform="rotate(180 77.64000032104022 -13.804500351687977)" font-family="sans-serif">road</text></g><g class="relationship" transform="translate(141.80800676056668 6.3858952037795) rotate(508.5435732408239)"><path class="outline" fill="#A5ABB6" stroke="none" d="M 21.40063509461097,-12.933012701892217 L 21.90063509461097,-12.06698729810778 A 122.89153061769277 122.89153061769277 0 0 1 57.936855720578244,-25.875748476668633 L 57.7300917185745,-26.85413932263735 A 123.89153061769277 123.89153061769277 0 0 0 21.40063509461097,-12.933012701892217 Z M 104.09880165282144,-27.780903524624733 L 103.93129705306472,-26.79503223025597 A 122.89153061769277 122.89153061769277 0 0 1 140.49050482476218,-14.437224601239643 L 139.0955159886541,-11.781286697761129 L 146.9201914055634,-11.624906967567233 L 142.35048993957295,-17.978475139210996 L 140.95550110346488,-15.322537235732481 A 123.89153061769277 123.89153061769277 0 0 0 104.09880165282144,-27.780903524624733"/><text text-anchor="middle" pointer-events="none" font-size="8px" fill="#000000" x="80.88068549538667" y="-26.00669202087954" transform="rotate(180 80.88068549538667 -29.00669202087954)" font-family="sans-serif">twowheeler</text></g><g class="relationship" transform="translate(-2.4005100741657475 94.6062043091213) rotate(182.91238149173432)"><path class="outline" fill="#A5ABB6" stroke="none" d="M 21.40063509461097,12.933012701892217 L 21.90063509461097,12.06698729810778 A 136.07812517548726 136.07812517548726 0 0 0 64.41317184948869,27.88233181564108 L 64.22558456608111,28.864579753334894 A 137.07812517548726 137.07812517548726 0 0 1 21.40063509461097,12.933012701892217 Z M 110.62792900359713,29.727842347074855 L 110.47700608066717,28.739296813811805 A 136.07812517548726 136.07812517548726 0 0 0 153.54837477054082,14.516143059314588 L 152.14604775421495,11.864072370346703 L 159.97026088085354,11.686058469382218 L 155.418144125642,18.05223731127177 L 154.01581710931612,15.400166622303884 A 137.07812517548726 137.07812517548726 0 0 1 110.62792900359713,29.727842347074855"/><text text-anchor="middle" pointer-events="none" font-size="8px" fill="#000000" x="87.3992573225647" y="33.77437022165209" transform="rotate(180 87.3992573225647 30.77437022165209)" font-family="sans-serif">twowheeler</text></g><g class="relationship" transform="translate(-184.23619747327933 85.35541020043381) rotate(533.1104475904526)"><path class="outline" fill="#A5ABB6" stroke="none" d="M 25 0.5 L 141.44853307552518 0.5 L 141.44853307552518 -0.5 L 25 -0.5 Z M 160.78447057552518 0.5 L 277.23300365105035 0.5 L 277.23300365105035 3.5 L 284.23300365105035 0 L 277.23300365105035 -3.5 L 277.23300365105035 -0.5 L 160.78447057552518 -0.5 Z"/><text text-anchor="middle" pointer-events="none" font-size="8px" fill="#000000" x="151.11650182552518" y="3" transform="rotate(180 151.11650182552518 0)" font-family="sans-serif">trek</text></g><g class="relationship" transform="translate(-2.4005100741657475 94.6062043091213) rotate(182.91238149173432)"><path class="outline" fill="#A5ABB6" stroke="none" d="M 25 0.5 L 76.52956560279297 0.5 L 76.52956560279297 -0.5 L 25 -0.5 Z M 98.54128435279297 0.5 L 150.07084995558594 0.5 L 150.07084995558594 3.5 L 157.07084995558594 0 L 150.07084995558594 -3.5 L 150.07084995558594 -0.5 L 98.54128435279297 -0.5 Z"/><text text-anchor="middle" pointer-events="none" font-size="8px" fill="#000000" x="87.53542497779297" y="3" transform="rotate(180 87.53542497779297 0)" font-family="sans-serif">road</text></g><g class="relationship" transform="translate(-2.4005100741657475 94.6062043091213) rotate(182.91238149173432)"><path class="outline" fill="#A5ABB6" stroke="none" d="M 21.40063509461097,-12.933012701892217 L 21.90063509461097,-12.06698729810778 A 136.07812517548726 136.07812517548726 0 0 1 77.79202892652745,-29.754704557316998 L 77.70275911376245,-30.750712037474088 A 137.07812517548726 137.07812517548726 0 0 0 21.40063509461097,-12.933012701892217 Z M 97.08992583195885,-31.111388120316334 L 97.03776413117362,-30.11274946846514 A 136.07812517548726 136.07812517548726 0 0 1 153.54837477054082,-14.516143059314588 L 152.14604775421495,-11.864072370346703 L 159.97026088085354,-11.686058469382218 L 155.418144125642,-18.05223731127177 L 154.01581710931612,-15.400166622303884 A 137.07812517548726 137.07812517548726 0 0 0 97.08992583195885,-31.111388120316334"/><text text-anchor="middle" pointer-events="none" font-size="8px" fill="#000000" x="87.3992573225647" y="-27.77437022165209" transform="rotate(180 87.3992573225647 -30.77437022165209)" font-family="sans-serif">trek</text></g><g class="relationship" transform="translate(141.80800676056668 6.3858952037795) rotate(508.5435732408239)"><path class="outline" fill="#A5ABB6" stroke="none" d="M 25 0.5 L 70.02064425894217 0.5 L 70.02064425894217 -0.5 L 25 -0.5 Z M 92.03236300894217 0.5 L 137.05300726788434 0.5 L 137.05300726788434 3.5 L 144.05300726788434 0 L 137.05300726788434 -3.5 L 137.05300726788434 -0.5 L 92.03236300894217 -0.5 Z"/><text text-anchor="middle" pointer-events="none" font-size="8px" fill="#000000" x="81.02650363394217" y="3" transform="rotate(180 81.02650363394217 0)" font-family="sans-serif">road</text></g><g class="relationship" transform="translate(141.80800676056668 6.3858952037795) rotate(508.5435732408239)"><path class="outline" fill="#A5ABB6" stroke="none" d="M 21.40063509461097,12.933012701892217 L 21.90063509461097,12.06698729810778 A 122.89153061769277 122.89153061769277 0 0 0 71.28118774715774,27.937628721980403 L 71.18301000784848,28.932797617949376 A 123.89153061769277 123.89153061769277 0 0 1 21.40063509461097,12.933012701892217 Z M 90.57356879154405,29.320353703998435 L 90.51523414710101,28.3220566193299 A 122.89153061769277 122.89153061769277 0 0 0 140.49050482476218,14.437224601239643 L 139.0955159886541,11.781286697761129 L 146.9201914055634,11.624906967567233 L 142.35048993957295,17.978475139210996 L 140.95550110346488,15.322537235732481 A 123.89153061769277 123.89153061769277 0 0 1 90.57356879154405,29.320353703998435"/><text text-anchor="middle" pointer-events="none" font-size="8px" fill="#000000" x="80.88068549538667" y="32.00669202087954" transform="rotate(180 80.88068549538667 29.00669202087954)" font-family="sans-serif">trek</text></g><g class="relationship" transform="translate(144.54070384931123 -155.94776619443633) rotate(450.9644162606901)"><path class="outline" fill="#A5ABB6" stroke="none" d="M 24.018736134675446,6.953439040707552 L 24.277555179777966,5.987513214418485 A 215.1000863350606 215.1000863350606 0 0 0 68.0059105161974,12.985023669021814 L 67.95038453378712,13.983480911610286 A 216.1000863350606 216.1000863350606 0 0 1 24.018736134675446,6.953439040707552 Z M 87.32355797738256,14.19102235844747 L 87.28943488203376,13.19160472083854 A 215.1000863350606 215.1000863350606 0 0 0 131.15766345849556,7.132501276124728 L 130.4434641728815,4.218754653573554 L 138.07543879205062,5.951660713450458 L 132.1099291726476,11.017496772859626 L 131.39572988703355,8.103750150308452 A 216.1000863350606 216.1000863350606 0 0 1 87.32355797738256,14.19102235844747"/><text text-anchor="middle" pointer-events="none" font-size="8px" fill="#000000" x="77.64000032104025" y="16.804500351687977" transform="rotate(180 77.64000032104025 13.804500351687977)" font-family="sans-serif">trek</text></g><g class="relationship" transform="translate(144.54070384931123 -155.94776619443633) rotate(500.9109342138391)"><path class="outline" fill="#A5ABB6" stroke="none" d="M 21.40063509461097,12.933012701892217 L 21.90063509461097,12.06698729810778 A 136.3776223093971 136.3776223093971 0 0 0 77.94004789213095,29.795872765969264 L 77.85096144120563,30.791896663404216 A 137.3776223093971 137.3776223093971 0 0 1 21.40063509461097,12.933012701892217 Z M 97.2380547544266,31.1520049157336 L 97.18601856115913,30.153359716180617 A 136.3776223093971 136.3776223093971 0 0 0 153.84516369942563,14.517809235808995 L 152.44268175912293,11.865820471291912 L 160.26688447334925,11.687349502522274 L 155.7151396198292,18.05379425516511 L 154.3126576795265,15.401805490648025 A 137.3776223093971 137.3776223093971 0 0 1 97.2380547544266,31.1520049157336"/><text text-anchor="middle" pointer-events="none" font-size="8px" fill="#000000" x="87.54743236017015" y="33.814517721142224" transform="rotate(180 87.54743236017015 30.814517721142224)" font-family="sans-serif">trek</text></g><g class="relationship" transform="translate(2.9936645164264135 -40.960453594512835) rotate(378.8333170704562)"><path class="outline" fill="#A5ABB6" stroke="none" d="M 25 0.5 L 60.16534284371379 0.5 L 60.16534284371379 -0.5 L 25 -0.5 Z M 79.50128034371379 0.5 L 114.66662318742758 0.5 L 114.66662318742758 3.5 L 121.66662318742758 0 L 114.66662318742758 -3.5 L 114.66662318742758 -0.5 L 79.50128034371379 -0.5 Z"/><text text-anchor="middle" pointer-events="none" font-size="8px" fill="#000000" x="69.83331159371379" y="3" font-family="sans-serif">trek</text></g><g class="relationship" transform="translate(2.9936645164264135 -40.960453594512835) rotate(537.0075724578429)"><path class="outline" fill="#A5ABB6" stroke="none" d="M 24.018736134675446,-6.953439040707552 L 24.277555179777966,-5.987513214418485 A 176.32676424000343 176.32676424000343 0 0 1 44.69598421935659,-10.18302129519455 L 44.55296398181221,-11.172741059396884 A 177.32676424000343 177.32676424000343 0 0 0 24.018736134675446,-6.953439040707552 Z M 91.01183417040276,-11.73618208422252 L 90.89285859255116,-10.743284903304556 A 176.32676424000343 176.32676424000343 0 0 1 111.40703123067364,-7.044196708428469 L 110.70107910565528,-4.128440957824167 L 118.32812000292007,-5.882934375153009 L 112.34830073069813,-10.93187104256754 L 111.64234860567977,-8.016115291963237 A 177.32676424000343 177.32676424000343 0 0 0 91.01183417040276,-11.73618208422252"/><text text-anchor="middle" pointer-events="none" font-size="8px" fill="#000000" x="67.76992887641948" y="-9.482699422808167" transform="rotate(180 67.76992887641948 -12.482699422808167)" font-family="sans-serif">twowheeler</text></g><g class="relationship" transform="translate(-139.4379412758382 -33.51480538374407) rotate(211.24332226304836)"><path class="outline" fill="#A5ABB6" stroke="none" d="M 24.018736134675446,-6.953439040707552 L 24.277555179777966,-5.987513214418485 A 171.80651340721076 171.80651340721076 0 0 1 43.554467191867865,-9.985003583499804 L 43.40784943430559,-10.974196806872982 A 172.80651340721076 172.80651340721076 0 0 0 24.018736134675446,-6.953439040707552 Z M 89.86293547743647,-11.546378845283698 L 89.74072606449931,-10.553874508069214 A 171.80651340721076 171.80651340721076 0 0 1 109.11024846526081,-7.032387898815603 L 108.40539924722165,-4.116365337203709 L 116.03177597869508,-5.8737434836595686 L 110.05004742264634,-10.920417980964796 L 109.34519820460719,-8.004395419352901 A 172.80651340721076 172.80651340721076 0 0 0 89.86293547743647,-11.546378845283698"/><text text-anchor="middle" pointer-events="none" font-size="8px" fill="#000000" x="66.62223405569372" y="-9.328609743565323" transform="rotate(180 66.62223405569372 -12.328609743565323)" font-family="sans-serif">twowheeler</text></g><g class="relationship" transform="translate(-259.41788709805434 -106.30129258010383) rotate(499.67334207969213)"><path class="outline" fill="#A5ABB6" stroke="none" d="M 25 0.5 L 66.08041086571396 0.5 L 66.08041086571396 -0.5 L 25 -0.5 Z M 85.41634836571396 0.5 L 126.49675923142792 0.5 L 126.49675923142792 3.5 L 133.49675923142792 0 L 126.49675923142792 -3.5 L 126.49675923142792 -0.5 L 85.41634836571396 -0.5 Z"/><text text-anchor="middle" pointer-events="none" font-size="8px" fill="#000000" x="75.74837961571396" y="3" transform="rotate(180 75.74837961571396 0)" font-family="sans-serif">trek</text></g><g class="relationship" transform="translate(-380.2506360690697 -3.730977854190984) rotate(491.3341251740113)"><path class="outline" fill="#A5ABB6" stroke="none" d="M 25 0.5 L 70.85491945960177 0.5 L 70.85491945960177 -0.5 L 25 -0.5 Z M 90.19085695960177 0.5 L 136.04577641920355 0.5 L 136.04577641920355 3.5 L 143.04577641920355 0 L 136.04577641920355 -3.5 L 136.04577641920355 -0.5 L 90.19085695960177 -0.5 Z"/><text text-anchor="middle" pointer-events="none" font-size="8px" fill="#000000" x="80.52288820960177" y="3" transform="rotate(180 80.52288820960177 0)" font-family="sans-serif">trek</text></g><g class="relationship" transform="translate(-259.41788709805434 -106.30129258010383) rotate(462.6622896152706)"><path class="outline" fill="#A5ABB6" stroke="none" d="M 21.40063509461097,12.933012701892217 L 21.90063509461097,12.06698729810778 A 116.57135635753973 116.57135635753973 0 0 0 54.84166735437287,24.896050983474396 L 54.62424991400894,25.87212969783384 A 117.57135635753973 117.57135635753973 0 0 1 21.40063509461097,12.933012701892217 Z M 100.9719158431758,26.83264441015234 L 100.79512446121211,25.848396063817248 A 116.57135635753973 116.57135635753973 0 0 0 134.23938712794322,14.39510937131894 L 132.84831451258884,11.737118216553522 L 140.6732119249549,11.59227179461968 L 136.09415061508236,17.93909757767283 L 134.70307799972798,15.281106422907412 A 117.57135635753973 117.57135635753973 0 0 1 100.9719158431758,26.83264441015234"/><text text-anchor="middle" pointer-events="none" font-size="8px" fill="#000000" x="77.76063297369518" y="31.15945534664273" transform="rotate(180 77.76063297369518 28.15945534664273)" font-family="sans-serif">twowheeler</text></g><g class="relationship" transform="translate(-295.1093847531993 52.56182879551711) rotate(520.3869798128826)"><path class="outline" fill="#A5ABB6" stroke="none" d="M 24.018736134675446,6.953439040707552 L 24.277555179777966,5.987513214418485 A 304.7213023778736 304.7213023778736 0 0 0 77.41344519291485,15.28225278200523 L 77.32900151835089,16.27868103623439 A 305.7213023778736 305.7213023778736 0 0 1 24.018736134675446,6.953439040707552 Z M 123.82338265414579,16.670531445020686 L 123.75574539495025,15.672821466535709 A 304.7213023778736 304.7213023778736 0 0 0 177.04074680631018,7.274987477416608 L 176.31324090620353,4.364534735091108 L 183.9530541884208,6.062549167555358 L 178.01075467311904,11.155591133850606 L 177.2832487730124,8.245138391525108 A 305.7213023778736 305.7213023778736 0 0 1 123.82338265414579,16.670531445020686"/><text text-anchor="middle" pointer-events="none" font-size="8px" fill="#000000" x="100.57294570410646" y="19.85980050158213" transform="rotate(180 100.57294570410646 16.85980050158213)" font-family="sans-serif">twowheeler</text></g><g class="relationship" transform="translate(-295.1093847531993 52.56182879551711) rotate(520.3869798128826)"><path class="outline" fill="#A5ABB6" stroke="none" d="M 24.018736134675446,-6.953439040707552 L 24.277555179777966,-5.987513214418485 A 304.7213023778736 304.7213023778736 0 0 1 90.92827326329395,-16.125638721434484 L 90.88818102712605,-17.12483470451241 A 305.7213023778736 305.7213023778736 0 0 0 24.018736134675446,-6.953439040707552 Z M 110.2518676169968,-17.288030091148244 L 110.22862214513042,-16.288300303636788 A 304.7213023778736 304.7213023778736 0 0 1 177.04074680631018,-7.274987477416608 L 176.31324090620353,-4.364534735091108 L 183.9530541884208,-6.062549167555358 L 178.01075467311904,-11.155591133850606 L 177.2832487730124,-8.245138391525108 A 305.7213023778736 305.7213023778736 0 0 0 110.2518676169968,-17.288030091148244"/><text text-anchor="middle" pointer-events="none" font-size="8px" fill="#000000" x="100.57294570410643" y="-13.859800501582129" transform="rotate(180 100.57294570410643 -16.85980050158213)" font-family="sans-serif">trek</text></g><g class="relationship" transform="translate(-259.41788709805434 -106.30129258010383) rotate(462.6622896152706)"><path class="outline" fill="#A5ABB6" stroke="none" d="M 25 0.5 L 66.9057097323334 0.5 L 66.9057097323334 -0.5 L 25 -0.5 Z M 88.9174284823334 0.5 L 130.8231382146668 0.5 L 130.8231382146668 3.5 L 137.8231382146668 0 L 130.8231382146668 -3.5 L 130.8231382146668 -0.5 L 88.9174284823334 -0.5 Z"/><text text-anchor="middle" pointer-events="none" font-size="8px" fill="#000000" x="77.9115691073334" y="3" transform="rotate(180 77.9115691073334 0)" font-family="sans-serif">road</text></g><g class="relationship" transform="translate(-259.41788709805434 -106.30129258010383) rotate(462.6622896152706)"><path class="outline" fill="#A5ABB6" stroke="none" d="M 21.40063509461097,-12.933012701892217 L 21.90063509461097,-12.06698729810778 A 116.57135635753973 116.57135635753973 0 0 1 68.16554873258035,-27.06314441728111 L 68.06242936504094,-28.0578134054567 A 117.57135635753973 117.57135635753973 0 0 0 21.40063509461097,-12.933012701892217 Z M 87.45472068163282,-28.459701628773487 L 87.39289943848794,-27.46161439115545 A 116.57135635753973 116.57135635753973 0 0 1 134.23938712794322,-14.39510937131894 L 132.84831451258884,-11.737118216553522 L 140.6732119249549,-11.59227179461968 L 136.09415061508236,-17.93909757767283 L 134.70307799972798,-15.281106422907412 A 117.57135635753973 117.57135635753973 0 0 0 87.45472068163282,-28.459701628773487"/><text text-anchor="middle" pointer-events="none" font-size="8px" fill="#000000" x="77.76063297369515" y="-25.15945534664273" transform="rotate(180 77.76063297369515 -28.15945534664273)" font-family="sans-serif">trek</text></g><g class="relationship" transform="translate(-139.4379412758382 -33.51480538374407) rotate(211.24332226304836)"><path class="outline" fill="#A5ABB6" stroke="none" d="M 24.018736134675446,6.953439040707552 L 24.277555179777966,5.987513214418485 A 171.80651340721076 171.80651340721076 0 0 0 56.997595815097114,11.439633070469142 L 56.92922380245236,12.437292966369 A 172.80651340721076 172.80651340721076 0 0 1 24.018736134675446,6.953439040707552 Z M 76.30962691336676,12.675999198597879 L 76.26584804275605,11.676957952958816 A 171.80651340721076 171.80651340721076 0 0 0 109.11024846526081,7.032387898815603 L 108.40539924722165,4.116365337203709 L 116.03177597869508,5.8737434836595686 L 110.05004742264634,10.920417980964796 L 109.34519820460719,8.004395419352901 A 172.80651340721076 172.80651340721076 0 0 1 76.30962691336676,12.675999198597879"/><text text-anchor="middle" pointer-events="none" font-size="8px" fill="#000000" x="66.62223405569375" y="15.328609743565323" transform="rotate(180 66.62223405569375 12.328609743565323)" font-family="sans-serif">trek</text></g><g class="relationship" transform="translate(-139.4379412758382 -33.51480538374407) rotate(511.0601330138846)"><path class="outline" fill="#A5ABB6" stroke="none" d="M 24.018736134675446,-6.953439040707552 L 24.277555179777966,-5.987513214418485 A 245.51139157533177 245.51139157533177 0 0 1 62.272840952725325,-13.0202534476511 L 62.16878167469166,-14.014824544483844 A 246.51139157533177 246.51139157533177 0 0 0 24.018736134675446,-6.953439040707552 Z M 108.65665053061244,-14.470960993017883 L 108.57212676362397,-13.47453952957278 A 245.51139157533177 245.51139157533177 0 0 1 146.69809374944745,-7.188696900938092 L 145.9786463022733,-4.276241687418997 L 153.61373048885437,-5.9953953931181845 L 147.65735701234635,-11.071970518963552 L 146.9379095651722,-8.159515305444456 A 246.51139157533177 246.51139157533177 0 0 0 108.65665053061244,-14.470960993017883"/><text text-anchor="middle" pointer-events="none" font-size="8px" fill="#000000" x="85.40684486173528" y="-11.84126958918992" transform="rotate(180 85.40684486173528 -14.84126958918992)" font-family="sans-serif">twowheeler</text></g><g class="relationship" transform="translate(-139.4379412758382 -33.51480538374407) rotate(511.0601330138846)"><path class="outline" fill="#A5ABB6" stroke="none" d="M 24.018736134675446,6.953439040707552 L 24.277555179777966,5.987513214418485 A 245.51139157533177 245.51139157533177 0 0 0 75.76823871709024,14.057103309191348 L 75.7191479587565,15.055897631084605 A 246.51139157533177 246.51139157533177 0 0 1 24.018736134675446,6.953439040707552 Z M 95.08846516022882,15.245948321216105 L 95.05898219798239,14.246383038236957 A 245.51139157533177 245.51139157533177 0 0 0 146.69809374944745,7.188696900938092 L 145.9786463022733,4.276241687418997 L 153.61373048885437,5.9953953931181845 L 147.65735701234635,11.071970518963552 L 146.9379095651722,8.159515305444456 A 246.51139157533177 246.51139157533177 0 0 1 95.08846516022882,15.245948321216105"/><text text-anchor="middle" pointer-events="none" font-size="8px" fill="#000000" x="85.40684486173538" y="17.84126958918992" transform="rotate(180 85.40684486173538 14.84126958918992)" font-family="sans-serif">trek</text></g><g class="relationship" transform="translate(2.9936645164264135 -40.960453594512835) rotate(537.0075724578429)"><path class="outline" fill="#A5ABB6" stroke="none" d="M 24.018736134675446,6.953439040707552 L 24.277555179777966,5.987513214418485 A 176.32676424000343 176.32676424000343 0 0 0 58.144067194943744,11.60241917493255 L 58.07731491951817,12.60018875440744 A 177.32676424000343 177.32676424000343 0 0 1 24.018736134675446,6.953439040707552 Z M 77.45684269309767,12.835218597902497 L 77.41430786876344,11.836123613069304 A 176.32676424000343 176.32676424000343 0 0 0 111.40703123067364,7.044196708428469 L 110.70107910565528,4.128440957824167 L 118.32812000292007,5.882934375153009 L 112.34830073069813,10.93187104256754 L 111.64234860567977,8.016115291963237 A 177.32676424000343 177.32676424000343 0 0 1 77.45684269309767,12.835218597902497"/><text text-anchor="middle" pointer-events="none" font-size="8px" fill="#000000" x="67.76992887641954" y="15.482699422808167" transform="rotate(180 67.76992887641954 12.482699422808167)" font-family="sans-serif">trek</text></g><g class="relationship" transform="translate(2.9936645164264135 -40.960453594512835) rotate(505.9941685933778)"><path class="outline" fill="#A5ABB6" stroke="none" d="M 25 0.5 L 99.75979429672356 0.5 L 99.75979429672356 -0.5 L 25 -0.5 Z M 119.09573179672356 0.5 L 193.8555260934471 0.5 L 193.8555260934471 3.5 L 200.8555260934471 0 L 193.8555260934471 -3.5 L 193.8555260934471 -0.5 L 119.09573179672356 -0.5 Z"/><text text-anchor="middle" pointer-events="none" font-size="8px" fill="#000000" x="109.42776304672356" y="3" transform="rotate(180 109.42776304672356 0)" font-family="sans-serif">trek</text></g><g class="relationship" transform="translate(144.54070384931123 -155.94776619443633) rotate(500.9109342138391)"><path class="outline" fill="#A5ABB6" stroke="none" d="M 25 0.5 L 76.67753604716248 0.5 L 76.67753604716248 -0.5 L 25 -0.5 Z M 98.68925479716248 0.5 L 150.36679084432495 0.5 L 150.36679084432495 3.5 L 157.36679084432495 0 L 150.36679084432495 -3.5 L 150.36679084432495 -0.5 L 98.68925479716248 -0.5 Z"/><text text-anchor="middle" pointer-events="none" font-size="8px" fill="#000000" x="87.68339542216248" y="3" transform="rotate(180 87.68339542216248 0)" font-family="sans-serif">road</text></g><g class="relationship" transform="translate(144.54070384931123 -155.94776619443633) rotate(500.9109342138391)"><path class="outline" fill="#A5ABB6" stroke="none" d="M 21.40063509461097,-12.933012701892217 L 21.90063509461097,-12.06698729810778 A 136.3776223093971 136.3776223093971 0 0 1 57.135453698170934,-26.29677898940251 L 56.89381586937541,-27.267145497323625 A 137.3776223093971 137.3776223093971 0 0 0 21.40063509461097,-12.933012701892217 Z M 118.31164095918255,-28.40795940364957 L 118.10620579270172,-27.42928867640113 A 136.3776223093971 136.3776223093971 0 0 1 153.84516369942563,-14.517809235808995 L 152.44268175912293,-11.865820471291912 L 160.26688447334925,-11.687349502522274 L 155.7151396198292,-18.05379425516511 L 154.3126576795265,-15.401805490648025 A 137.3776223093971 137.3776223093971 0 0 0 118.31164095918255,-28.40795940364957"/><text text-anchor="middle" pointer-events="none" font-size="8px" fill="#000000" x="87.54743236017013" y="-27.814517721142224" transform="rotate(180 87.54743236017013 -30.814517721142224)" font-family="sans-serif">PublicTransport</text></g></g><g class="layer nodes"><g class="node" aria-label="graph-node1" transform="translate(144.54070384931123,-155.94776619443633)"><circle class="outline" cx="0" cy="0" r="25" fill="#F16667" stroke="#eb2728" stroke-width="2px"/><text class="caption" text-anchor="middle" pointer-events="none" x="0" y="5" font-size="10px" fill="#FFFFFF" font-family="sans-serif"> Darjeeling</text></g><g class="node" aria-label="graph-node3" transform="translate(-491.2363012725102,122.44970645082758)"><circle class="outline" cx="0" cy="0" r="25" fill="#57C7E3" stroke="#23b3d7" stroke-width="2px"/><text class="caption" text-anchor="middle" pointer-events="none" x="0" y="5" font-size="10px" fill="#2A2C34" font-family="sans-serif"> Sandakp…</text></g><g class="node" aria-label="graph-node6" transform="translate(141.80800676056668,6.3858952037795)"><circle class="outline" cx="0" cy="0" r="25" fill="#D9C8AE" stroke="#c0a378" stroke-width="2px"/><text class="caption" text-anchor="middle" pointer-events="none" x="0" y="5" font-size="10px" fill="#2A2C34" font-family="sans-serif"> Tumbling</text></g><g class="node" aria-label="graph-node7" transform="translate(-2.4005100741657475,94.6062043091213)"><circle class="outline" cx="0" cy="0" r="25" fill="#D9C8AE" stroke="#c0a378" stroke-width="2px"/><text class="caption" text-anchor="middle" pointer-events="none" x="0" y="5" font-size="10px" fill="#2A2C34" font-family="sans-serif"> Gairibus</text></g><g class="node" aria-label="graph-node2" transform="translate(-184.23619747327933,85.35541020043381)"><circle class="outline" cx="0" cy="0" r="25" fill="#D9C8AE" stroke="#c0a378" stroke-width="2px"/><text class="caption" text-anchor="middle" pointer-events="none" x="0" y="5" font-size="10px" fill="#2A2C34" font-family="sans-serif"> BhikeBh…</text></g><g class="node" aria-label="graph-node0" transform="translate(2.9936645164264135,-40.960453594512835)"><circle class="outline" cx="0" cy="0" r="25" fill="#F16667" stroke="#eb2728" stroke-width="2px"/><text class="caption" text-anchor="middle" pointer-events="none" x="0" y="5" font-size="10px" fill="#FFFFFF" font-family="sans-serif"> Rimbik</text></g><g class="node" aria-label="graph-node4" transform="translate(-139.4379412758382,-33.51480538374407)"><circle class="outline" cx="0" cy="0" r="25" fill="#D9C8AE" stroke="#c0a378" stroke-width="2px"/><text class="caption" text-anchor="middle" pointer-events="none" x="0" y="5" font-size="10px" fill="#2A2C34" font-family="sans-serif"> Sirikhola</text></g><g class="node" aria-label="graph-node8" transform="translate(-259.41788709805434,-106.30129258010383)"><circle class="outline" cx="0" cy="0" r="25" fill="#D9C8AE" stroke="#c0a378" stroke-width="2px"/><text class="caption" text-anchor="middle" pointer-events="none" x="0" y="5" font-size="10px" fill="#2A2C34" font-family="sans-serif"> Rammam</text></g><g class="node" aria-label="graph-node9" transform="translate(-380.2506360690697,-3.730977854190984)"><circle class="outline" cx="0" cy="0" r="25" fill="#57C7E3" stroke="#23b3d7" stroke-width="2px"/><text class="caption" text-anchor="middle" pointer-events="none" x="0" y="5" font-size="10px" fill="#2A2C34" font-family="sans-serif"> Sabargr…</text></g><g class="node" aria-label="graph-node5" transform="translate(-295.1093847531993,52.56182879551711)"><circle class="outline" cx="0" cy="0" r="25" fill="#D9C8AE" stroke="#c0a378" stroke-width="2px"/><text class="caption" text-anchor="middle" pointer-events="none" x="0" y="5" font-size="10px" fill="#2A2C34" font-family="sans-serif"> Gurdum</text></g></g></svg>