<svg xmlns="http://www.w3.org/2000/svg" width="508.711669921875" height="88.26698303222656" viewBox="-377.0693054199219 -62.075862884521484 508.711669921875 88.26698303222656"><title>Neo4j Graph Visualization</title><desc>Created using Neo4j (http://www.neo4j.com/)</desc><g class="layer relationships"><g class="relationship" transform="translate(102.64235132641322 -14.478922220660412) rotate(536.4995926773313)"><path class="outline" fill="#A5ABB6" stroke="none" d="M 21.40063509461097,12.933012701892217 L 21.90063509461097,12.06698729810778 A 94.60595808569158 94.60595808569158 0 0 0 36.91704222854906,19.061999131560924 L 36.57576803649803,20.00196292120387 A 95.60595808569158 95.60595808569158 0 0 1 21.40063509461097,12.933012701892217 Z M 97.5262631008878,21.450263286464036 L 97.23001954525034,20.49515085552028 A 94.60595808569158 94.60595808569158 0 0 0 112.56172099798586,14.22126814012596 L 111.1868147741752,11.554878656999627 L 119.01244749591575,11.45755186508882 L 114.39492929640006,17.77645411762774 L 113.02002307258941,15.110064634501406 A 95.60595808569158 95.60595808569158 0 0 1 97.5262631008878,21.450263286464036"/><text text-anchor="middle" pointer-events="none" font-size="8px" fill="#000000" x="66.9443523608382" y="28.214943929153335" transform="rotate(180 66.9443523608382 25.214943929153335)" font-family="sans-serif">PublicTransport</text></g><g class="relationship" transform="translate(-38.32652040978536 -5.8558907513515965) rotate(183.7624278687972)"><path class="outline" fill="#A5ABB6" stroke="none" d="M 25 0.5 L 62.17876499494815 0.5 L 62.17876499494815 -0.5 L 25 -0.5 Z M 81.51470249494815 0.5 L 118.6934674898963 0.5 L 118.6934674898963 3.5 L 125.6934674898963 0 L 118.6934674898963 -3.5 L 118.6934674898963 -0.5 L 81.51470249494815 -0.5 Z"/><text text-anchor="middle" pointer-events="none" font-size="8px" fill="#000000" x="71.84673374494815" y="3" transform="rotate(180 71.84673374494815 0)" font-family="sans-serif">trek</text></g><g class="relationship" transform="translate(-188.6952002814326 -15.744331365852412) rotate(186.20638230848624)"><path class="outline" fill="#A5ABB6" stroke="none" d="M 25 0.5 L 66.98888615588864 0.5 L 66.98888615588864 -0.5 L 25 -0.5 Z M 86.32482365588864 0.5 L 128.31370981177727 0.5 L 128.31370981177727 3.5 L 135.31370981177727 0 L 128.31370981177727 -3.5 L 128.31370981177727 -0.5 L 86.32482365588864 -0.5 Z"/><text text-anchor="middle" pointer-events="none" font-size="8px" fill="#000000" x="76.65685490588864" y="3" transform="rotate(180 76.65685490588864 0)" font-family="sans-serif">trek</text></g><g class="relationship" transform="translate(102.64235132641322 -14.478922220660412) rotate(536.4995926773313)"><path class="outline" fill="#A5ABB6" stroke="none" d="M 25 0.5 L 57.44821117765096 0.5 L 57.44821117765096 -0.5 L 25 -0.5 Z M 76.78414867765096 0.5 L 109.23235985530192 0.5 L 109.23235985530192 3.5 L 116.23235985530192 0 L 109.23235985530192 -3.5 L 109.23235985530192 -0.5 L 76.78414867765096 -0.5 Z"/><text text-anchor="middle" pointer-events="none" font-size="8px" fill="#000000" x="67.11617992765096" y="3" transform="rotate(180 67.11617992765096 0)" font-family="sans-serif">trek</text></g><g class="relationship" transform="translate(102.64235132641322 -14.478922220660412) rotate(536.4995926773313)"><path class="outline" fill="#A5ABB6" stroke="none" d="M 21.40063509461097,-12.933012701892217 L 21.90063509461097,-12.06698729810778 A 94.60595808569158 94.60595808569158 0 0 1 56.05076430263491,-23.823015721858297 L 55.91173659126277,-24.8133042128904 A 95.60595808569158 95.60595808569158 0 0 0 21.40063509461097,-12.933012701892217 Z M 77.98359318689721,-25.337773750597293 L 77.89175812530438,-24.341999518423037 A 94.60595808569158 94.60595808569158 0 0 1 112.56172099798586,-14.22126814012596 L 111.1868147741752,-11.554878656999627 L 119.01244749591575,-11.45755186508882 L 114.39492929640006,-17.77645411762774 L 113.02002307258941,-15.110064634501406 A 95.60595808569158 95.60595808569158 0 0 0 77.98359318689721,-25.337773750597293"/><text text-anchor="middle" pointer-events="none" font-size="8px" fill="#000000" x="66.9443523608382" y="-22.214943929153335" transform="rotate(180 66.9443523608382 -25.214943929153335)" font-family="sans-serif">road</text></g></g><g class="layer nodes"><g class="node" aria-label="graph-node1" transform="translate(102.64235132641322,-14.478922220660412)"><circle class="outline" cx="0" cy="0" r="25" fill="#F16667" stroke="#eb2728" stroke-width="2px"/><text class="caption" text-anchor="middle" pointer-events="none" x="0" y="5" font-size="10px" fill="#FFFFFF" font-family="sans-serif"> Darjeeling</text></g><g class="node" aria-label="graph-node3" transform="translate(-348.0692998185743,-33.07586189088064)"><circle class="outline" cx="0" cy="0" r="25" fill="#57C7E3" stroke="#23b3d7" stroke-width="2px"/><text class="caption" text-anchor="middle" pointer-events="none" x="0" y="5" font-size="10px" fill="#2A2C34" font-family="sans-serif"> Sandakp…</text></g><g class="node" aria-label="graph-node0" transform="translate(-38.32652040978536,-5.8558907513515965)"><circle class="outline" cx="0" cy="0" r="25" fill="#F16667" stroke="#eb2728" stroke-width="2px"/><text class="caption" text-anchor="middle" pointer-events="none" x="0" y="5" font-size="10px" fill="#FFFFFF" font-family="sans-serif"> Rimbik</text></g><g class="node" aria-label="graph-node2" transform="translate(-188.6952002814326,-15.744331365852412)"><circle class="outline" cx="0" cy="0" r="25" fill="#D9C8AE" stroke="#c0a378" stroke-width="2px"/><text class="caption" text-anchor="middle" pointer-events="none" x="0" y="5" font-size="10px" fill="#2A2C34" font-family="sans-serif"> BhikeBh…</text></g></g></svg>