<svg xmlns="http://www.w3.org/2000/svg" width="317.46917724609375" height="171.84255981445312" viewBox="-281.3254089355469 -78.83641052246094 317.46917724609375 171.84255981445312"><title>Neo4j Graph Visualization</title><desc>Created using Neo4j (http://www.neo4j.com/)</desc><g class="layer relationships"><g class="relationship" transform="translate(-124.10164243244749 -49.83640508657612) rotate(408.03091476283305)"><path class="outline" fill="#A5ABB6" stroke="none" d="M 25 0.5 L 55.835287173557546 0.5 L 55.835287173557546 -0.5 L 25 -0.5 Z M 90.28059967355755 0.5 L 121.11588684711509 0.5 L 121.11588684711509 3.5 L 128.1158868471151 0 L 121.11588684711509 -3.5 L 121.11588684711509 -0.5 L 90.28059967355755 -0.5 Z"/><text text-anchor="middle" pointer-events="none" font-size="8px" fill="#000000" x="73.05794342355755" y="3" font-family="sans-serif">ORIGIN</text></g><g class="relationship" transform="translate(-124.10164243244749 -49.83640508657612) rotate(529.4912484519659)"><path class="outline" fill="#A5ABB6" stroke="none" d="M 25 0.5 L 32.11181932292793 0.5 L 32.11181932292793 -0.5 L 25 -0.5 Z M 91.29931932292793 0.5 L 98.41113864585586 0.5 L 98.41113864585586 3.5 L 105.41113864585586 0 L 98.41113864585586 -3.5 L 98.41113864585586 -0.5 L 91.29931932292793 -0.5 Z"/><text text-anchor="middle" pointer-events="none" font-size="8px" fill="#000000" x="61.70556932292793" y="3" transform="rotate(180 61.70556932292793 0)" font-family="sans-serif">DESTINATION</text></g><g class="relationship" transform="translate(-120.84785765080669 53.67298223222824) rotate(211.2314359934461)"><path class="outline" fill="#A5ABB6" stroke="none" d="M 25 0.5 L 56.15761178633535 0.5 L 56.15761178633535 -0.5 L 25 -0.5 Z M 90.60292428633535 0.5 L 121.7605360726707 0.5 L 121.7605360726707 3.5 L 128.7605360726707 0 L 121.7605360726707 -3.5 L 121.7605360726707 -0.5 L 90.60292428633535 -0.5 Z"/><text text-anchor="middle" pointer-events="none" font-size="8px" fill="#000000" x="73.38026803633535" y="3" transform="rotate(180 73.38026803633535 0)" font-family="sans-serif">ORIGIN</text></g><g class="relationship" transform="translate(-120.84785765080669 53.67298223222824) rotate(326.4507727815897)"><path class="outline" fill="#A5ABB6" stroke="none" d="M 25 0.5 L 43.69403738600771 0.5 L 43.69403738600771 -0.5 L 25 -0.5 Z M 102.88153738600771 0.5 L 121.57557477201541 0.5 L 121.57557477201541 3.5 L 128.57557477201541 0 L 121.57557477201541 -3.5 L 121.57557477201541 -0.5 L 102.88153738600771 -0.5 Z"/><text text-anchor="middle" pointer-events="none" font-size="8px" fill="#000000" x="73.28778738600771" y="3" font-family="sans-serif">DESTINATION</text></g></g><g class="layer nodes"><g class="node" aria-label="graph-node21" transform="translate(-21.708526698865448,64.00613817097685)"><circle class="outline" cx="0" cy="0" r="25" fill="#8DCC93" stroke="#5db665" stroke-width="2px"/><text class="caption" text-anchor="middle" pointer-events="none" x="0" y="5" font-size="10px" fill="#2A2C34" font-family="sans-serif"> MSN</text></g><g class="node" aria-label="graph-node68" transform="translate(7.14376219168023,-31.201056299299204)"><circle class="outline" cx="0" cy="0" r="25" fill="#8DCC93" stroke="#5db665" stroke-width="2px"/><text class="caption" text-anchor="middle" pointer-events="none" x="0" y="5" font-size="10px" fill="#2A2C34" font-family="sans-serif"> GRR</text></g><g class="node" aria-label="graph-node271" transform="translate(-124.10164243244749,-49.83640508657612)"><circle class="outline" cx="0" cy="0" r="25" fill="#ECB5C9" stroke="#da7298" stroke-width="2px"/><text class="caption" text-anchor="middle" pointer-events="none" x="0" y="5" font-size="10px" fill="#2A2C34" font-family="sans-serif"> 11/30/20…</text></g><g class="node" aria-label="graph-node7" transform="translate(-252.3254029831653,-26.051277104141004)"><circle class="outline" cx="0" cy="0" r="25" fill="#8DCC93" stroke="#5db665" stroke-width="2px"/><text class="caption" text-anchor="middle" pointer-events="none" x="0" y="5" font-size="10px" fill="#2A2C34" font-family="sans-serif"> ORD</text></g><g class="node" aria-label="graph-node851" transform="translate(-120.84785765080669,53.67298223222824)"><circle class="outline" cx="0" cy="0" r="25" fill="#ECB5C9" stroke="#da7298" stroke-width="2px"/><text class="caption" text-anchor="middle" pointer-events="none" x="0" y="5" font-size="10px" fill="#2A2C34" font-family="sans-serif"> 11/17/20…</text></g></g></svg>