<svg xmlns="http://www.w3.org/2000/svg" width="490.7540283203125" height="186.38735961914062" viewBox="-342.0693054199219 -114.83683013916016 490.7540283203125 186.38735961914062"><title>Neo4j Graph Visualization</title><desc>Created using Neo4j (http://www.neo4j.com/)</desc><g class="layer relationships"><g class="relationship" transform="translate(119.68473656786429 -85.8368329469205) rotate(495.7659180771875)"><path class="outline" fill="#A5ABB6" stroke="none" d="M 21.40063509461097,12.933012701892217 L 21.90063509461097,12.06698729810778 A 120.00403440013902 120.00403440013902 0 0 0 49.1504984687178,23.588548842152377 L 48.87757302925504,24.550584030954766 A 121.00403440013902 121.00403440013902 0 0 1 21.40063509461097,12.933012701892217 Z M 110.17218163758596,25.795916782243637 L 109.9385569532269,24.823589930378418 A 120.00403440013902 120.00403440013902 0 0 0 137.63391060461205,14.418359493458544 L 136.24067598741323,11.761500953483413 L 144.06545296742053,11.61028847665709 L 139.4915567608772,17.960837546758718 L 138.09832214367836,15.303979006783587 A 121.00403440013902 121.00403440013902 0 0 1 110.17218163758596,25.795916782243637"/><text text-anchor="middle" pointer-events="none" font-size="8px" fill="#000000" x="79.4548569551981" y="31.61961578429232" transform="rotate(180 79.4548569551981 28.61961578429232)" font-family="sans-serif">PublicTransport</text></g><g class="relationship" transform="translate(0.5988817194533276 30.10700661524868) rotate(535.9679164397885)"><path class="outline" fill="#A5ABB6" stroke="none" d="M 25 0.5 L 75.31612771885554 0.5 L 75.31612771885554 -0.5 L 25 -0.5 Z M 94.65206521885554 0.5 L 144.96819293771108 0.5 L 144.96819293771108 3.5 L 151.96819293771108 0 L 144.96819293771108 -3.5 L 144.96819293771108 -0.5 L 94.65206521885554 -0.5 Z"/><text text-anchor="middle" pointer-events="none" font-size="8px" fill="#000000" x="84.98409646885554" y="3" transform="rotate(180 84.98409646885554 0)" font-family="sans-serif">trek</text></g><g class="relationship" transform="translate(-175.9312853457526 42.55053616153998) rotate(212.2795014438326)"><path class="outline" fill="#A5ABB6" stroke="none" d="M 25 0.5 L 67.93531085860195 0.5 L 67.93531085860195 -0.5 L 25 -0.5 Z M 87.27124835860195 0.5 L 130.2065592172039 0.5 L 130.2065592172039 3.5 L 137.2065592172039 0 L 130.2065592172039 -3.5 L 130.2065592172039 -0.5 L 87.27124835860195 -0.5 Z"/><text text-anchor="middle" pointer-events="none" font-size="8px" fill="#000000" x="77.60327960860195" y="3" transform="rotate(180 77.60327960860195 0)" font-family="sans-serif">trek</text></g><g class="relationship" transform="translate(119.68473656786429 -85.8368329469205) rotate(495.7659180771875)"><path class="outline" fill="#A5ABB6" stroke="none" d="M 25 0.5 L 69.93500165027334 0.5 L 69.93500165027334 -0.5 L 25 -0.5 Z M 89.27093915027334 0.5 L 134.20594080054667 0.5 L 134.20594080054667 3.5 L 141.20594080054667 0 L 134.20594080054667 -3.5 L 134.20594080054667 -0.5 L 89.27093915027334 -0.5 Z"/><text text-anchor="middle" pointer-events="none" font-size="8px" fill="#000000" x="79.60297040027334" y="3" transform="rotate(180 79.60297040027334 0)" font-family="sans-serif">trek</text></g><g class="relationship" transform="translate(119.68473656786429 -85.8368329469205) rotate(495.7659180771875)"><path class="outline" fill="#A5ABB6" stroke="none" d="M 21.40063509461097,-12.933012701892217 L 21.90063509461097,-12.06698729810778 A 120.00403440013902 120.00403440013902 0 0 1 68.53246908253925,-27.397337721084142 L 68.4210546348586,-28.391111750151126 A 121.00403440013902 121.00403440013902 0 0 0 21.40063509461097,-12.933012701892217 Z M 90.48883508616993,-28.83946651361616 L 90.41787726369687,-27.84198719682314 A 120.00403440013902 120.00403440013902 0 0 1 137.63391060461205,-14.418359493458544 L 136.24067598741323,-11.761500953483413 L 144.06545296742053,-11.61028847665709 L 139.4915567608772,-17.960837546758718 L 138.09832214367836,-15.303979006783587 A 121.00403440013902 121.00403440013902 0 0 0 90.48883508616993,-28.83946651361616"/><text text-anchor="middle" pointer-events="none" font-size="8px" fill="#000000" x="79.45485695519811" y="-25.61961578429232" transform="rotate(180 79.45485695519811 -28.61961578429232)" font-family="sans-serif">road</text></g></g><g class="layer nodes"><g class="node" aria-label="graph-node1" transform="translate(119.68473656786429,-85.8368329469205)"><circle class="outline" cx="0" cy="0" r="25" fill="#F16667" stroke="#eb2728" stroke-width="2px"/><text class="caption" text-anchor="middle" pointer-events="none" x="0" y="5" font-size="10px" fill="#FFFFFF" font-family="sans-serif"> Darjeeling</text></g><g class="node" aria-label="graph-node3" transform="translate(-313.0692998185743,-44.07586189088064)"><circle class="outline" cx="0" cy="0" r="25" fill="#57C7E3" stroke="#23b3d7" stroke-width="2px"/><text class="caption" text-anchor="middle" pointer-events="none" x="0" y="5" font-size="10px" fill="#2A2C34" font-family="sans-serif"> Sandakp…</text></g><g class="node" aria-label="graph-node0" transform="translate(0.5988817194533276,30.10700661524868)"><circle class="outline" cx="0" cy="0" r="25" fill="#F16667" stroke="#eb2728" stroke-width="2px"/><text class="caption" text-anchor="middle" pointer-events="none" x="0" y="5" font-size="10px" fill="#FFFFFF" font-family="sans-serif"> Rimbik</text></g><g class="node" aria-label="graph-node2" transform="translate(-175.9312853457526,42.55053616153998)"><circle class="outline" cx="0" cy="0" r="25" fill="#D9C8AE" stroke="#c0a378" stroke-width="2px"/><text class="caption" text-anchor="middle" pointer-events="none" x="0" y="5" font-size="10px" fill="#2A2C34" font-family="sans-serif"> BhikeBh…</text></g></g></svg>